<svg width="414" height="64" viewBox="0 0 414 64" fill="none" xmlns="http://www.w3.org/2000/svg">
<path d="M52.7846 37.215C53.5738 35.8169 55.3494 35.3229 56.7496 36.1107L61.1154 38.5664L61.1211 38.5692C62.017 39.0763 62.7628 39.8126 63.2813 40.7012C63.7995 41.5897 64.0714 42.5999 64.0714 43.6281C64.0714 44.6563 63.7994 45.6666 63.2813 46.555C62.7648 47.4403 62.021 48.1716 61.1296 48.6785L61.1325 48.6813L36.3987 62.8304L36.4015 62.8332C35.0743 63.5984 33.5682 64 32.0357 64C30.5031 63.9999 28.9972 63.5985 27.6699 62.8332V62.8304L2.93895 48.6813V48.6785C2.04872 48.1716 1.30614 47.4394 0.790163 46.555C0.272158 45.6667 0 44.6562 0 43.6281C7.01702e-05 42.6 0.272001 41.5896 0.790163 40.7012C1.30858 39.8126 2.05449 39.0763 2.95032 38.5692L2.95885 38.5664L7.32464 36.1107C8.72463 35.3236 10.4977 35.8174 11.2868 37.215C12.0756 38.6136 11.581 40.3871 10.1812 41.1753L5.82106 43.6281L5.83243 43.6366L30.5719 57.7913L30.5804 57.797C31.0228 58.0521 31.5249 58.1859 32.0357 58.1859C32.5465 58.1859 33.0485 58.0521 33.491 57.797L33.4995 57.7913L58.239 43.6366L58.2504 43.6281V43.6253L53.8931 41.1753C52.4926 40.3873 51.9957 38.6139 52.7846 37.215ZM58.239 20.3662L33.4995 6.20866L33.491 6.20298C33.0486 5.94802 32.5464 5.81405 32.0357 5.81405C31.5249 5.81411 31.0228 5.94789 30.5804 6.20298L30.5719 6.20866L5.83243 20.3662L5.82106 20.3719L5.83243 20.3804L30.5719 34.5351L30.5804 34.5408C31.0228 34.7959 31.5249 34.9297 32.0357 34.9297C32.5466 34.9297 33.0486 34.7959 33.491 34.5408L33.4995 34.5351L58.239 20.3804L58.2504 20.3719L58.239 20.3662ZM64.0714 20.3719C64.0714 21.4001 63.7994 22.4104 63.2813 23.2988C62.7648 24.1841 62.021 24.9154 61.1296 25.4223L61.1325 25.4251L36.3987 39.5742L36.4015 39.577C35.0743 40.3422 33.5682 40.7438 32.0357 40.7438C30.5032 40.7437 28.9972 40.3423 27.6699 39.577V39.5742L2.93895 25.4251V25.4223C2.04873 24.9154 1.30614 24.1832 0.790163 23.2988C0.272158 22.4104 0 21.3999 0 20.3719C7.04154e-05 19.3438 0.272 18.3334 0.790163 17.445C1.30858 16.5564 2.05449 15.8201 2.95032 15.313L27.6784 1.16395V1.16678C29.0041 0.403968 30.5058 5.7305e-05 32.0357 0C33.5648 0 35.0651 0.404894 36.3901 1.16678L36.393 1.16395L61.1183 15.313H61.1211C62.017 15.8201 62.7628 16.5564 63.2813 17.445C63.7995 18.3334 64.0714 19.3436 64.0714 20.3719Z" fill="white"/>
<path d="M87.7286 62.6675V3.85313H111.38C115.645 3.85313 119.488 4.5533 122.911 5.95364C126.39 7.35398 129.364 9.37047 131.833 12.0031C134.302 14.6358 136.21 17.7445 137.557 21.3294C138.903 24.9143 139.577 28.8912 139.577 33.2603C139.577 37.6294 138.903 41.6344 137.557 45.2752C136.21 48.8601 134.302 51.9689 131.833 54.6015C129.42 57.1782 126.474 59.1666 122.995 60.567C119.516 61.9673 115.645 62.6675 111.38 62.6675H87.7286ZM98.5864 54.1814L97.8288 52.585H110.959C113.709 52.585 116.178 52.1369 118.366 51.2407C120.554 50.3445 122.378 49.0842 123.837 47.4598C125.352 45.7794 126.502 43.7349 127.288 41.3263C128.13 38.9177 128.55 36.229 128.55 33.2603C128.55 30.2916 128.13 27.6309 127.288 25.2784C126.502 22.8698 125.352 20.8253 123.837 19.1449C122.322 17.4644 120.47 16.1761 118.282 15.2799C116.15 14.3837 113.709 13.9356 110.959 13.9356H97.5763L98.5864 12.5072V54.1814Z" fill="white"/>
<path d="M165.489 63.5077C161.056 63.5077 157.1 62.5275 153.621 60.567C150.142 58.5505 147.392 55.8058 145.372 52.333C143.408 48.8601 142.426 44.9112 142.426 40.4861C142.426 36.061 143.408 32.112 145.372 28.6392C147.392 25.1663 150.142 22.4497 153.621 20.4892C157.1 18.4727 161.056 17.4644 165.489 17.4644C169.866 17.4644 173.793 18.4727 177.272 20.4892C180.751 22.4497 183.473 25.1663 185.437 28.6392C187.457 32.112 188.467 36.061 188.467 40.4861C188.467 44.9112 187.457 48.8601 185.437 52.333C183.473 55.8058 180.751 58.5505 177.272 60.567C173.793 62.5275 169.866 63.5077 165.489 63.5077ZM165.489 54.3495C167.902 54.3495 170.062 53.7613 171.97 52.585C173.878 51.3527 175.365 49.7003 176.431 47.6278C177.553 45.4993 178.086 43.1187 178.03 40.4861C178.086 37.7974 177.553 35.4168 176.431 33.3443C175.365 31.2158 173.878 29.5634 171.97 28.3871C170.062 27.2108 167.902 26.6227 165.489 26.6227C163.076 26.6227 160.888 27.2388 158.924 28.4711C157.016 29.6474 155.529 31.2998 154.463 33.4284C153.396 35.5009 152.863 37.8534 152.863 40.4861C152.863 43.1187 153.396 45.4993 154.463 47.6278C155.529 49.7003 157.016 51.3527 158.924 52.585C160.888 53.7613 163.076 54.3495 165.489 54.3495Z" fill="white"/>
<path d="M213.721 63.5077C209.289 63.5077 205.333 62.5275 201.854 60.567C198.375 58.5505 195.625 55.8058 193.605 52.333C191.641 48.8601 190.659 44.9112 190.659 40.4861C190.659 36.061 191.641 32.112 193.605 28.6392C195.625 25.1663 198.375 22.4497 201.854 20.4892C205.333 18.4727 209.289 17.4644 213.721 17.4644C218.098 17.4644 222.026 18.4727 225.505 20.4892C228.984 22.4497 231.706 25.1663 233.669 28.6392C235.69 32.112 236.7 36.061 236.7 40.4861C236.7 44.9112 235.69 48.8601 233.669 52.333C231.706 55.8058 228.984 58.5505 225.505 60.567C222.026 62.5275 218.098 63.5077 213.721 63.5077ZM213.721 54.3495C216.134 54.3495 218.295 53.7613 220.202 52.585C222.11 51.3527 223.597 49.7003 224.663 47.6278C225.786 45.4993 226.319 43.1187 226.263 40.4861C226.319 37.7974 225.786 35.4168 224.663 33.3443C223.597 31.2158 222.11 29.5634 220.202 28.3871C218.295 27.2108 216.134 26.6227 213.721 26.6227C211.309 26.6227 209.12 27.2388 207.156 28.4711C205.248 29.6474 203.761 31.2998 202.695 33.4284C201.629 35.5009 201.096 37.8534 201.096 40.4861C201.096 43.1187 201.629 45.4993 202.695 47.6278C203.761 49.7003 205.248 51.3527 207.156 52.585C209.12 53.7613 211.309 54.3495 213.721 54.3495Z" fill="white"/>
<path d="M244.234 62.6675V14.3557C244.234 11.723 244.823 9.37047 246.002 7.29797C247.18 5.16945 248.807 3.51704 250.883 2.34076C252.96 1.10846 255.344 0.492308 258.038 0.492308C259.946 0.492308 261.713 0.828389 263.34 1.50055C265.024 2.17272 266.398 3.06894 267.465 4.18921L264.266 11.8351C263.537 11.2749 262.751 10.8268 261.909 10.4907C261.124 10.0987 260.366 9.9026 259.637 9.9026C258.515 9.9026 257.561 10.0987 256.775 10.4907C256.046 10.8268 255.485 11.359 255.092 12.0871C254.755 12.8153 254.587 13.7115 254.587 14.7758V62.6675H249.368C248.414 62.6675 247.489 62.6675 246.591 62.6675C245.749 62.6675 244.963 62.6675 244.234 62.6675ZM237.332 28.3871V19.3129H264.603V28.3871H237.332Z" fill="white"/>
<path d="M287.583 63.5077C283.15 63.5077 279.194 62.5275 275.715 60.567C272.236 58.5505 269.487 55.8058 267.467 52.333C265.503 48.8601 264.521 44.9112 264.521 40.4861C264.521 36.061 265.503 32.112 267.467 28.6392C269.487 25.1663 272.236 22.4497 275.715 20.4892C279.194 18.4727 283.15 17.4644 287.583 17.4644C291.96 17.4644 295.888 18.4727 299.367 20.4892C302.846 22.4497 305.567 25.1663 307.531 28.6392C309.551 32.112 310.561 36.061 310.561 40.4861C310.561 44.9112 309.551 48.8601 307.531 52.333C305.567 55.8058 302.846 58.5505 299.367 60.567C295.888 62.5275 291.96 63.5077 287.583 63.5077ZM287.583 54.3495C289.996 54.3495 292.156 53.7613 294.064 52.585C295.972 51.3527 297.459 49.7003 298.525 47.6278C299.647 45.4993 300.18 43.1187 300.124 40.4861C300.18 37.7974 299.647 35.4168 298.525 33.3443C297.459 31.2158 295.972 29.5634 294.064 28.3871C292.156 27.2108 289.996 26.6227 287.583 26.6227C285.17 26.6227 282.982 27.2388 281.018 28.4711C279.11 29.6474 277.623 31.2998 276.557 33.4284C275.491 35.5009 274.958 37.8534 274.958 40.4861C274.958 43.1187 275.491 45.4993 276.557 47.6278C277.623 49.7003 279.11 51.3527 281.018 52.585C282.982 53.7613 285.17 54.3495 287.583 54.3495Z" fill="white"/>
<path d="M315.615 62.6675V18.3887H325.715L325.884 32.5041L324.537 29.3113C325.154 27.0708 326.22 25.0543 327.735 23.2619C329.25 21.4694 330.99 20.0691 332.954 19.0608C334.974 17.9966 337.05 17.4644 339.182 17.4644C340.136 17.4644 341.034 17.5485 341.876 17.7165C342.774 17.8846 343.503 18.0806 344.064 18.3047L341.371 29.5634C340.697 29.2273 339.912 28.9753 339.014 28.8072C338.172 28.5832 337.303 28.4711 336.405 28.4711C334.946 28.4711 333.571 28.7512 332.281 29.3113C331.046 29.8155 329.952 30.5436 328.998 31.4959C328.1 32.4481 327.371 33.5684 326.81 34.8567C326.248 36.089 325.968 37.4613 325.968 38.9737V62.6675H315.615Z" fill="white"/>
<path d="M346.665 62.6675V18.3887H356.765L356.933 27.3789L355.25 28.051C355.755 26.5947 356.513 25.2504 357.523 24.0181C358.533 22.7297 359.739 21.6095 361.142 20.6572C362.545 19.705 364.032 18.9768 365.603 18.4727C367.174 17.9126 368.801 17.6325 370.485 17.6325C372.898 17.6325 375.03 18.0246 376.882 18.8088C378.733 19.593 380.276 20.7973 381.511 22.4217C382.801 24.0461 383.783 26.1186 384.457 28.6392L382.858 28.3031L383.447 26.9588C384.12 25.6144 385.018 24.3821 386.14 23.2619C387.262 22.1416 388.525 21.1614 389.928 20.3211C391.331 19.4249 392.789 18.7528 394.304 18.3047C395.876 17.8565 397.391 17.6325 398.85 17.6325C402.216 17.6325 405.022 18.3047 407.266 19.649C409.511 20.9933 411.194 23.0378 412.317 25.7825C413.439 28.5272 414 31.916 414 35.949V62.6675H403.647V36.6211C403.647 33.2603 402.974 30.7677 401.627 29.1433C400.337 27.5189 398.317 26.7067 395.567 26.7067C394.108 26.7067 392.761 26.9588 391.527 27.4629C390.292 27.911 389.198 28.5832 388.244 29.4794C387.346 30.3196 386.645 31.3278 386.14 32.5041C385.635 33.6244 385.383 34.8847 385.383 36.285V62.6675H375.03V36.5371C375.03 33.3443 374.328 30.9077 372.926 29.2273C371.579 27.5469 369.643 26.7067 367.118 26.7067C365.659 26.7067 364.312 26.9588 363.078 27.4629C361.899 27.911 360.833 28.5832 359.879 29.4794C358.982 30.3196 358.28 31.2998 357.775 32.4201C357.27 33.5404 357.018 34.7727 357.018 36.117V62.6675H346.665Z" fill="white"/>
</svg>
