<svg width="827" height="128" viewBox="0 0 827 128" fill="none" xmlns="http://www.w3.org/2000/svg">
<path d="M105.442 74.4301C107.018 71.6338 110.565 70.6458 113.362 72.2214L122.083 77.1327L122.095 77.1384C123.884 78.1526 125.374 79.6252 126.41 81.4024C127.445 83.1793 127.988 85.1997 127.988 87.2562C127.988 89.3125 127.445 91.3332 126.41 93.11C125.378 94.8806 123.892 96.3432 122.112 97.357L122.117 97.3627L72.7094 125.661L72.7151 125.666C70.0639 127.197 67.0553 128 63.994 128C60.9326 128 57.9243 127.197 55.273 125.666V125.661L5.87081 97.3627V97.357C4.09249 96.3433 2.60913 94.8789 1.57842 93.11C0.543658 91.3333 0 89.3123 0 87.2562C0.000140171 85.1999 0.543344 83.1792 1.57842 81.4024C2.61399 79.6252 4.10401 78.1526 5.89352 77.1384L5.91055 77.1327L14.6316 72.2214C17.4282 70.6471 20.97 71.6348 22.5464 74.4301C24.1221 77.2272 23.1341 80.7741 20.3377 82.3506L11.6281 87.2562L11.6508 87.2732L61.07 115.583L61.087 115.594C61.9707 116.104 62.9737 116.372 63.994 116.372C65.0145 116.372 66.0173 116.104 66.9011 115.594L66.9181 115.583L116.337 87.2732L116.36 87.2562V87.2505L107.656 82.3506C104.858 80.7746 103.866 77.2277 105.442 74.4301ZM116.337 40.7324L66.9181 12.4173L66.9011 12.406C66.0175 11.896 65.0143 11.6281 63.994 11.6281C62.9737 11.6282 61.9707 11.8958 61.087 12.406L61.07 12.4173L11.6508 40.7324L11.6281 40.7438L11.6508 40.7608L61.07 69.0703L61.087 69.0816C61.9707 69.5918 62.9737 69.8594 63.994 69.8595C65.0145 69.8595 66.0173 69.5918 66.9011 69.0816L66.9181 69.0703L116.337 40.7608L116.36 40.7438L116.337 40.7324ZM127.988 40.7438C127.988 42.8001 127.445 44.8207 126.41 46.5976C125.378 48.3682 123.892 49.8308 122.112 50.8446L122.117 50.8502L72.7094 79.1483L72.7151 79.154C70.0639 80.6844 67.0553 81.4876 63.994 81.4876C60.9326 81.4875 57.9243 80.6847 55.273 79.154V79.1483L5.87081 50.8502V50.8446C4.09251 49.8309 2.60913 48.3665 1.57842 46.5976C0.543659 44.8209 0 42.7999 0 40.7438C0.000140661 38.6875 0.543343 36.6668 1.57842 34.89C2.614 33.1128 4.10401 31.6402 5.89352 30.626L55.29 2.32789V2.33357C57.938 0.807936 60.9378 0.00011461 63.994 0C67.0485 0 70.0455 0.809789 72.6924 2.33357L72.6981 2.32789L122.089 30.626H122.095C123.884 31.6401 125.374 33.1128 126.41 34.89C127.445 36.6669 127.988 38.6873 127.988 40.7438Z" fill="#001999"/>
<path d="M175.245 125.335V7.70625H222.491C231.01 7.70625 238.688 9.10659 245.525 11.9073C252.475 14.708 258.416 18.7409 263.348 24.0062C268.28 29.2715 272.091 35.489 274.781 42.6588C277.471 49.8285 278.816 57.7825 278.816 66.5206C278.816 75.2587 277.471 83.2687 274.781 90.5505C272.091 97.7202 268.28 103.938 263.348 109.203C258.528 114.356 252.643 118.333 245.694 121.134C238.744 123.935 231.01 125.335 222.491 125.335H175.245ZM196.935 108.363L195.421 105.17H221.65C227.143 105.17 232.075 104.274 236.446 102.481C240.818 100.689 244.461 98.1683 247.375 94.9196C250.401 91.5587 252.699 87.4697 254.268 82.6526C255.95 77.8354 256.79 72.4581 256.79 66.5206C256.79 60.5832 255.95 55.2619 254.268 50.5567C252.699 45.7395 250.401 41.6505 247.375 38.2897C244.348 34.9289 240.65 32.3523 236.278 30.5598C232.019 28.7674 227.143 27.8712 221.65 27.8712H194.917L196.935 25.0145V108.363Z" fill="#001999"/>
<path d="M330.578 127.015C321.723 127.015 313.82 125.055 306.871 121.134C299.921 117.101 294.429 111.612 290.394 104.666C286.471 97.7202 284.509 89.8223 284.509 80.9721C284.509 72.122 286.471 64.2241 290.394 57.2784C294.429 50.3327 299.921 44.8993 306.871 40.9784C313.82 36.9454 321.723 34.9289 330.578 34.9289C339.321 34.9289 347.167 36.9454 354.117 40.9784C361.066 44.8993 366.503 50.3327 370.426 57.2784C374.461 64.2241 376.479 72.122 376.479 80.9721C376.479 89.8223 374.461 97.7202 370.426 104.666C366.503 111.612 361.066 117.101 354.117 121.134C347.167 125.055 339.321 127.015 330.578 127.015ZM330.578 108.699C335.398 108.699 339.713 107.523 343.524 105.17C347.335 102.705 350.306 99.4006 352.435 95.2556C354.677 90.9986 355.742 86.2374 355.63 80.9721C355.742 75.5948 354.677 70.8337 352.435 66.6887C350.306 62.4316 347.335 59.1268 343.524 56.7742C339.713 54.4217 335.398 53.2454 330.578 53.2454C325.758 53.2454 321.386 54.4777 317.463 56.9423C313.652 59.2949 310.682 62.5997 308.552 66.8567C306.422 71.0017 305.358 75.7069 305.358 80.9721C305.358 86.2374 306.422 90.9986 308.552 95.2556C310.682 99.4006 313.652 102.705 317.463 105.17C321.386 107.523 325.758 108.699 330.578 108.699Z" fill="#001999"/>
<path d="M426.927 127.015C418.072 127.015 410.169 125.055 403.22 121.134C396.27 117.101 390.778 111.612 386.743 104.666C382.819 97.7202 380.858 89.8223 380.858 80.9721C380.858 72.122 382.819 64.2241 386.743 57.2784C390.778 50.3327 396.27 44.8993 403.22 40.9784C410.169 36.9454 418.072 34.9289 426.927 34.9289C435.67 34.9289 443.516 36.9454 450.466 40.9784C457.415 44.8993 462.851 50.3327 466.775 57.2784C470.81 64.2241 472.827 72.122 472.827 80.9721C472.827 89.8223 470.81 97.7202 466.775 104.666C462.851 111.612 457.415 117.101 450.466 121.134C443.516 125.055 435.67 127.015 426.927 127.015ZM426.927 108.699C431.747 108.699 436.062 107.523 439.873 105.17C443.684 102.705 446.654 99.4006 448.784 95.2556C451.026 90.9986 452.091 86.2374 451.979 80.9721C452.091 75.5948 451.026 70.8337 448.784 66.6887C446.654 62.4316 443.684 59.1268 439.873 56.7742C436.062 54.4217 431.747 53.2454 426.927 53.2454C422.107 53.2454 417.735 54.4777 413.812 56.9423C410.001 59.2949 407.031 62.5997 404.901 66.8567C402.771 71.0017 401.707 75.7069 401.707 80.9721C401.707 86.2374 402.771 90.9986 404.901 95.2556C407.031 99.4006 410.001 102.705 413.812 105.17C417.735 107.523 422.107 108.699 426.927 108.699Z" fill="#001999"/>
<path d="M487.878 125.335V28.7114C487.878 23.4461 489.055 18.7409 491.409 14.5959C493.763 10.3389 497.013 7.03409 501.161 4.68151C505.308 2.21691 510.072 0.984615 515.452 0.984615C519.263 0.984615 522.794 1.65678 526.045 3.0011C529.407 4.34543 532.153 6.13787 534.283 8.37842L527.894 23.6702C526.437 22.5499 524.868 21.6537 523.186 20.9815C521.617 20.1973 520.104 19.8052 518.647 19.8052C516.405 19.8052 514.499 20.1973 512.93 20.9815C511.473 21.6537 510.352 22.7179 509.567 24.1743C508.895 25.6306 508.559 27.4231 508.559 29.5516V125.335H498.134C496.229 125.335 494.379 125.335 492.586 125.335C490.905 125.335 489.335 125.335 487.878 125.335ZM474.091 56.7742V38.6258H528.567V56.7742H474.091Z" fill="#001999"/>
<path d="M574.471 127.015C565.616 127.015 557.714 125.055 550.764 121.134C543.815 117.101 538.322 111.612 534.287 104.666C530.364 97.7202 528.402 89.8223 528.402 80.9721C528.402 72.122 530.364 64.2241 534.287 57.2784C538.322 50.3327 543.815 44.8993 550.764 40.9784C557.714 36.9454 565.616 34.9289 574.471 34.9289C583.214 34.9289 591.061 36.9454 598.01 40.9784C604.96 44.8993 610.396 50.3327 614.319 57.2784C618.354 64.2241 620.372 72.122 620.372 80.9721C620.372 89.8223 618.354 97.7202 614.319 104.666C610.396 111.612 604.96 117.101 598.01 121.134C591.061 125.055 583.214 127.015 574.471 127.015ZM574.471 108.699C579.291 108.699 583.607 107.523 587.418 105.17C591.229 102.705 594.199 99.4006 596.329 95.2556C598.571 90.9986 599.635 86.2374 599.523 80.9721C599.635 75.5948 598.571 70.8337 596.329 66.6887C594.199 62.4316 591.229 59.1268 587.418 56.7742C583.607 54.4217 579.291 53.2454 574.471 53.2454C569.651 53.2454 565.28 54.4777 561.357 56.9423C557.546 59.2949 554.575 62.5997 552.446 66.8567C550.316 71.0017 549.251 75.7069 549.251 80.9721C549.251 86.2374 550.316 90.9986 552.446 95.2556C554.575 99.4006 557.546 102.705 561.357 105.17C565.28 107.523 569.651 108.699 574.471 108.699Z" fill="#001999"/>
<path d="M630.468 125.335V36.7774H650.644L650.98 65.0082L648.29 58.6227C649.523 54.1416 651.653 50.1086 654.679 46.5237C657.706 42.9389 661.18 40.1382 665.104 38.1217C669.139 35.9932 673.286 34.9289 677.546 34.9289C679.451 34.9289 681.245 35.0969 682.926 35.433C684.719 35.7691 686.176 36.1612 687.297 36.6093L681.917 59.1268C680.572 58.4546 679.003 57.9505 677.209 57.6144C675.528 57.1663 673.791 56.9423 671.997 56.9423C669.083 56.9423 666.337 57.5024 663.759 58.6227C661.293 59.6309 659.107 61.0873 657.201 62.9918C655.408 64.8962 653.951 67.1368 652.83 69.7134C651.709 72.178 651.148 74.9227 651.148 77.9474V125.335H630.468Z" fill="#001999"/>
<path d="M692.492 125.335V36.7774H712.669L713.005 54.7577L709.642 56.1021C710.651 53.1894 712.164 50.5007 714.182 48.0361C716.199 45.4595 718.609 43.2189 721.412 41.3145C724.214 39.41 727.184 37.9536 730.323 36.9454C733.461 35.8251 736.712 35.265 740.075 35.265C744.894 35.265 749.154 36.0492 752.853 37.6176C756.552 39.1859 759.634 41.5945 762.1 44.8433C764.678 48.0921 766.64 52.2371 767.985 57.2784L764.79 56.6062L765.967 53.9175C767.312 51.2289 769.106 48.7643 771.348 46.5237C773.589 44.2832 776.111 42.3227 778.914 40.6423C781.716 38.8499 784.63 37.5055 787.657 36.6093C790.795 35.7131 793.821 35.265 796.736 35.265C803.461 35.265 809.066 36.6093 813.549 39.298C818.033 41.9866 821.396 46.0756 823.637 51.565C825.879 57.0543 827 63.832 827 71.8979V125.335H806.319V73.2423C806.319 66.5206 804.974 61.5354 802.284 58.2866C799.706 55.0378 795.671 53.4134 790.179 53.4134C787.264 53.4134 784.574 53.9175 782.108 54.9258C779.642 55.822 777.456 57.1663 775.551 58.9588C773.757 60.6392 772.356 62.6557 771.348 65.0082C770.339 67.2488 769.834 69.7694 769.834 72.5701V125.335H749.154V73.0742C749.154 66.6887 747.753 61.8155 744.95 58.4546C742.26 55.0938 738.393 53.4134 733.349 53.4134C730.435 53.4134 727.745 53.9175 725.279 54.9258C722.925 55.822 720.795 57.1663 718.89 58.9588C717.096 60.6392 715.695 62.5997 714.686 64.8402C713.677 67.0808 713.173 69.5454 713.173 72.234V125.335H692.492Z" fill="#001999"/>
</svg>
