<svg width="3308" height="512" viewBox="0 0 3308 512" fill="none" xmlns="http://www.w3.org/2000/svg">
<path d="M421.767 297.72C428.073 286.535 442.261 282.583 453.449 288.886L488.333 308.531L488.378 308.554C495.536 312.61 501.496 318.501 505.639 325.61C509.78 332.717 511.952 340.799 511.952 349.025C511.952 357.25 509.779 365.333 505.639 372.44C501.512 379.522 495.569 385.373 488.446 389.428L488.469 389.451L290.838 502.643L290.86 502.666C280.256 508.787 268.221 512 255.976 512C243.73 512 231.697 508.788 221.092 502.666V502.643L23.4832 389.451V389.428C16.37 385.373 10.4365 379.515 6.31367 372.44C2.17463 365.333 0 357.249 0 349.025C0.000560683 340.8 2.17338 332.717 6.31367 325.61C10.456 318.501 16.416 312.61 23.5741 308.554L23.6422 308.531L58.5264 288.886C69.7127 282.589 83.8801 286.539 90.1856 297.72C96.4883 308.909 92.5365 323.097 81.351 329.402L46.5122 349.025L46.6031 349.093L244.28 462.331L244.348 462.376C247.883 464.417 251.895 465.487 255.976 465.488C260.058 465.488 264.069 464.417 267.604 462.376L267.672 462.331L465.349 349.093L465.44 349.025V349.002L430.624 329.402C419.434 323.098 415.463 308.911 421.767 297.72ZM465.349 162.93L267.672 49.6693L267.604 49.6238C264.07 47.5841 260.057 46.5124 255.976 46.5124C251.895 46.5129 247.883 47.5831 244.348 49.6238L244.28 49.6693L46.6031 162.93L46.5122 162.975L46.6031 163.043L244.28 276.281L244.348 276.326C247.883 278.367 251.895 279.437 255.976 279.438C260.058 279.438 264.069 278.367 267.604 276.326L267.672 276.281L465.349 163.043L465.44 162.975L465.349 162.93ZM511.952 162.975C511.952 171.2 509.779 179.283 505.639 186.39C501.512 193.473 495.569 199.323 488.446 203.378L488.469 203.401L290.838 316.593L290.86 316.616C280.255 322.738 268.221 325.95 255.976 325.95C243.731 325.95 231.697 322.739 221.092 316.616V316.593L23.4832 203.401V203.378C16.37 199.324 10.4365 193.466 6.31367 186.39C2.17464 179.284 0 171.2 0 162.975C0.000562643 154.75 2.17337 146.667 6.31367 139.56C10.456 132.451 16.4161 126.561 23.5741 122.504L221.16 9.31157V9.33428C231.752 3.23174 243.751 0.00045844 255.976 0C268.194 0 280.182 3.23915 290.77 9.33428L290.792 9.31157L488.356 122.504H488.378C495.536 126.561 501.496 132.451 505.639 139.56C509.78 146.668 511.952 154.749 511.952 162.975Z" fill="#10147E"/>
<path d="M700.981 501.34V30.825H889.964C924.039 30.825 954.752 36.4264 982.102 47.6291C1009.9 58.8319 1033.66 74.9638 1053.39 96.0249C1073.12 117.086 1088.36 141.956 1099.12 170.635C1109.88 199.314 1115.26 231.13 1115.26 266.082C1115.26 301.035 1109.88 333.075 1099.12 362.202C1088.36 390.881 1073.12 415.751 1053.39 436.812C1034.11 457.425 1010.57 473.333 982.774 484.536C954.976 495.739 924.039 501.34 889.964 501.34H700.981ZM787.738 433.451L781.685 420.68H886.601C908.571 420.68 928.299 417.095 945.785 409.926C963.271 402.756 977.842 392.673 989.5 379.678C1001.61 366.235 1010.8 349.879 1017.07 330.61C1023.8 311.342 1027.16 289.832 1027.16 266.082C1027.16 242.333 1023.8 221.047 1017.07 202.227C1010.8 182.958 1001.61 166.602 989.5 153.159C977.394 139.716 962.598 129.409 945.112 122.239C928.075 115.07 908.571 111.485 886.601 111.485H779.668L787.738 100.058V433.451Z" fill="#10147E"/>
<path d="M1322.31 508.062C1286.89 508.062 1255.28 500.22 1227.48 484.536C1199.69 468.404 1177.72 446.447 1161.57 418.664C1145.88 390.881 1138.04 359.289 1138.04 323.889C1138.04 288.488 1145.88 256.896 1161.57 229.113C1177.72 201.331 1199.69 179.597 1227.48 163.914C1255.28 147.782 1286.89 139.716 1322.31 139.716C1357.28 139.716 1388.67 147.782 1416.47 163.914C1444.26 179.597 1466.01 201.331 1481.7 229.113C1497.84 256.896 1505.91 288.488 1505.91 323.889C1505.91 359.289 1497.84 390.881 1481.7 418.664C1466.01 446.447 1444.26 468.404 1416.47 484.536C1388.67 500.22 1357.28 508.062 1322.31 508.062ZM1322.31 434.796C1341.59 434.796 1358.85 430.09 1374.1 420.68C1389.34 410.822 1401.22 397.603 1409.74 381.023C1418.71 363.994 1422.97 344.95 1422.52 323.889C1422.97 302.379 1418.71 283.335 1409.74 266.755C1401.22 249.726 1389.34 236.507 1374.1 227.097C1358.85 217.687 1341.59 212.981 1322.31 212.981C1303.03 212.981 1285.55 217.911 1269.85 227.769C1254.61 237.179 1242.73 250.399 1234.21 267.427C1225.69 284.007 1221.43 302.827 1221.43 323.889C1221.43 344.95 1225.69 363.994 1234.21 381.023C1242.73 397.603 1254.61 410.822 1269.85 420.68C1285.55 430.09 1303.03 434.796 1322.31 434.796Z" fill="#10147E"/>
<path d="M1707.71 508.062C1672.29 508.062 1640.68 500.22 1612.88 484.536C1585.08 468.404 1563.11 446.447 1546.97 418.664C1531.28 390.881 1523.43 359.289 1523.43 323.889C1523.43 288.488 1531.28 256.896 1546.97 229.113C1563.11 201.331 1585.08 179.597 1612.88 163.914C1640.68 147.782 1672.29 139.716 1707.71 139.716C1742.68 139.716 1774.06 147.782 1801.86 163.914C1829.66 179.597 1851.41 201.331 1867.1 229.113C1883.24 256.896 1891.31 288.488 1891.31 323.889C1891.31 359.289 1883.24 390.881 1867.1 418.664C1851.41 446.447 1829.66 468.404 1801.86 484.536C1774.06 500.22 1742.68 508.062 1707.71 508.062ZM1707.71 434.796C1726.99 434.796 1744.25 430.09 1759.49 420.68C1774.74 410.822 1786.62 397.603 1795.14 381.023C1804.1 363.994 1808.36 344.95 1807.92 323.889C1808.36 302.379 1804.1 283.335 1795.14 266.755C1786.62 249.726 1774.74 236.507 1759.49 227.097C1744.25 217.687 1726.99 212.981 1707.71 212.981C1688.43 212.981 1670.94 217.911 1655.25 227.769C1640 237.179 1628.12 250.399 1619.6 267.427C1611.09 284.007 1606.83 302.827 1606.83 323.889C1606.83 344.95 1611.09 363.994 1619.6 381.023C1628.12 397.603 1640 410.822 1655.25 420.68C1670.94 430.09 1688.43 434.796 1707.71 434.796Z" fill="#10147E"/>
<path d="M1951.51 501.34V114.846C1951.51 93.7844 1956.22 74.9638 1965.64 58.3837C1975.05 41.3556 1988.05 28.1364 2004.64 18.726C2021.23 8.86765 2040.29 3.93846 2061.81 3.93846C2077.05 3.93846 2091.18 6.62711 2104.18 12.0044C2117.63 17.3817 2128.61 24.5515 2137.13 33.5137L2111.58 94.6806C2105.75 90.1995 2099.47 86.6146 2092.75 83.926C2086.47 80.7892 2080.42 79.2208 2074.59 79.2208C2065.62 79.2208 2058 80.7892 2051.72 83.926C2045.89 86.6146 2041.41 90.8717 2038.27 96.6971C2035.58 102.523 2034.23 109.692 2034.23 118.206V501.34H1992.54C1984.92 501.34 1977.52 501.34 1970.34 501.34C1963.62 501.34 1957.34 501.34 1951.51 501.34ZM1896.36 227.097V154.503H2114.27V227.097H1896.36Z" fill="#10147E"/>
<path d="M2297.88 508.062C2262.46 508.062 2230.86 500.22 2203.06 484.536C2175.26 468.404 2153.29 446.447 2137.15 418.664C2121.46 390.881 2113.61 359.289 2113.61 323.889C2113.61 288.488 2121.46 256.896 2137.15 229.113C2153.29 201.331 2175.26 179.597 2203.06 163.914C2230.86 147.782 2262.46 139.716 2297.88 139.716C2332.86 139.716 2364.24 147.782 2392.04 163.914C2419.84 179.597 2441.58 201.331 2457.28 229.113C2473.42 256.896 2481.49 288.488 2481.49 323.889C2481.49 359.289 2473.42 390.881 2457.28 418.664C2441.58 446.447 2419.84 468.404 2392.04 484.536C2364.24 500.22 2332.86 508.062 2297.88 508.062ZM2297.88 434.796C2317.16 434.796 2334.43 430.09 2349.67 420.68C2364.91 410.822 2376.8 397.603 2385.31 381.023C2394.28 363.994 2398.54 344.95 2398.09 323.889C2398.54 302.379 2394.28 283.335 2385.31 266.755C2376.8 249.726 2364.91 236.507 2349.67 227.097C2334.43 217.687 2317.16 212.981 2297.88 212.981C2278.61 212.981 2261.12 217.911 2245.43 227.769C2230.18 237.179 2218.3 250.399 2209.78 267.427C2201.26 284.007 2197 302.827 2197 323.889C2197 344.95 2201.26 363.994 2209.78 381.023C2218.3 397.603 2230.18 410.822 2245.43 420.68C2261.12 430.09 2278.61 434.796 2297.88 434.796Z" fill="#10147E"/>
<path d="M2521.87 501.34V147.109H2602.58L2603.92 260.033L2593.16 234.491C2598.09 216.566 2606.61 200.434 2618.72 186.095C2630.82 171.755 2644.72 160.553 2660.41 152.487C2676.56 143.973 2693.14 139.716 2710.18 139.716C2717.8 139.716 2724.98 140.388 2731.7 141.732C2738.88 143.076 2744.71 144.645 2749.19 146.437L2727.67 236.507C2722.29 233.819 2716.01 231.802 2708.84 230.458C2702.11 228.665 2695.16 227.769 2687.99 227.769C2676.33 227.769 2665.35 230.01 2655.03 234.491C2645.17 238.524 2636.43 244.349 2628.81 251.967C2621.63 259.585 2615.8 268.547 2611.32 278.854C2606.84 288.712 2604.59 299.691 2604.59 311.79V501.34H2521.87Z" fill="#10147E"/>
<path d="M2769.97 501.34V147.109H2850.67L2852.02 219.031L2838.57 224.408C2842.6 212.757 2848.66 202.003 2856.73 192.144C2864.8 181.838 2874.44 172.876 2885.65 165.258C2896.86 157.64 2908.74 151.815 2921.29 147.782C2933.84 143.3 2946.85 141.06 2960.3 141.06C2979.58 141.06 2996.62 144.197 3011.41 150.47C3026.21 156.744 3038.54 166.378 3048.4 179.373C3058.71 192.368 3066.56 208.948 3071.94 229.113L3059.16 226.425L3063.87 215.67C3069.25 204.916 3076.42 195.057 3085.39 186.095C3094.36 177.133 3104.45 169.291 3115.65 162.569C3126.86 155.399 3138.52 150.022 3150.63 146.437C3163.18 142.852 3175.29 141.06 3186.94 141.06C3213.84 141.06 3236.26 146.437 3254.2 157.192C3272.13 167.946 3285.58 184.302 3294.55 206.26C3303.52 228.217 3308 255.328 3308 287.592V501.34H3225.28V292.969C3225.28 266.082 3219.9 246.142 3209.14 233.146C3198.82 220.151 3182.68 213.654 3160.71 213.654C3149.06 213.654 3138.3 215.67 3128.43 219.703C3118.57 223.288 3109.83 228.665 3102.2 235.835C3095.03 242.557 3089.43 250.623 3085.39 260.033C3081.35 268.995 3079.34 279.078 3079.34 290.28V501.34H2996.62V292.297C2996.62 266.755 2991.01 247.262 2979.8 233.819C2969.04 220.375 2953.57 213.654 2933.4 213.654C2921.74 213.654 2910.98 215.67 2901.11 219.703C2891.7 223.288 2883.18 228.665 2875.56 235.835C2868.38 242.557 2862.78 250.399 2858.74 259.361C2854.71 268.323 2852.69 278.181 2852.69 288.936V501.34H2769.97Z" fill="#10147E"/>
</svg>
