<svg width="373" height="72" viewBox="0 0 373 72" fill="none" xmlns="http://www.w3.org/2000/svg">
<path d="M295.333 71.04V20.448H306.853L307.046 30.72L305.125 31.488C305.701 29.824 306.565 28.288 307.717 26.88C308.869 25.408 310.245 24.128 311.845 23.04C313.445 21.952 315.142 21.12 316.934 20.544C318.726 19.904 320.581 19.584 322.501 19.584C325.253 19.584 327.685 20.032 329.797 20.928C331.909 21.824 333.669 23.2 335.077 25.056C336.549 26.912 337.669 29.28 338.438 32.16L336.613 31.776L337.285 30.24C338.053 28.704 339.078 27.296 340.358 26.016C341.638 24.736 343.077 23.616 344.677 22.656C346.277 21.632 347.941 20.864 349.669 20.352C351.461 19.84 353.189 19.584 354.853 19.584C358.693 19.584 361.893 20.352 364.453 21.888C367.013 23.424 368.934 25.76 370.214 28.896C371.494 32.032 372.134 35.904 372.134 40.512V71.04H360.326V41.28C360.326 37.44 359.558 34.592 358.022 32.736C356.55 30.88 354.245 29.952 351.109 29.952C349.445 29.952 347.909 30.24 346.501 30.816C345.093 31.328 343.846 32.096 342.758 33.12C341.734 34.08 340.934 35.232 340.358 36.576C339.782 37.856 339.493 39.296 339.493 40.896V71.04H327.685V41.184C327.685 37.536 326.885 34.752 325.285 32.832C323.749 30.912 321.541 29.952 318.661 29.952C316.997 29.952 315.461 30.24 314.053 30.816C312.709 31.328 311.493 32.096 310.405 33.12C309.381 34.08 308.581 35.2 308.005 36.48C307.429 37.76 307.142 39.168 307.142 40.704V71.04H295.333Z" fill="#4D4D4D"/>
<path d="M259.919 71.0401V20.4481H271.439L271.631 36.5761L270.095 32.9281C270.799 30.3681 272.015 28.0641 273.743 26.0161C275.471 23.9681 277.455 22.3681 279.695 21.2161C281.999 20.0001 284.367 19.3921 286.799 19.3921C287.887 19.3921 288.911 19.4881 289.871 19.6801C290.895 19.8721 291.727 20.0961 292.367 20.3521L289.295 33.2161C288.527 32.8321 287.631 32.5441 286.607 32.3521C285.647 32.0961 284.655 31.9681 283.631 31.9681C281.967 31.9681 280.399 32.2881 278.927 32.9281C277.519 33.5041 276.271 34.3361 275.183 35.4241C274.159 36.5121 273.327 37.7921 272.687 39.2641C272.047 40.6721 271.727 42.2401 271.727 43.9681V71.0401H259.919Z" fill="#4D4D4D"/>
<path d="M227.947 72.0001C222.891 72.0001 218.379 70.8801 214.411 68.6401C210.443 66.3361 207.307 63.2001 205.003 59.2321C202.763 55.2641 201.643 50.7521 201.643 45.6961C201.643 40.6401 202.763 36.1281 205.003 32.1601C207.307 28.1921 210.443 25.0881 214.411 22.8481C218.379 20.5441 222.891 19.3921 227.947 19.3921C232.939 19.3921 237.419 20.5441 241.387 22.8481C245.355 25.0881 248.459 28.1921 250.699 32.1601C253.003 36.1281 254.155 40.6401 254.155 45.6961C254.155 50.7521 253.003 55.2641 250.699 59.2321C248.459 63.2001 245.355 66.3361 241.387 68.6401C237.419 70.8801 232.939 72.0001 227.947 72.0001ZM227.947 61.5361C230.699 61.5361 233.163 60.8641 235.339 59.5201C237.515 58.1121 239.211 56.2241 240.427 53.8561C241.707 51.4241 242.315 48.7041 242.251 45.6961C242.315 42.6241 241.707 39.9041 240.427 37.5361C239.211 35.1041 237.515 33.2161 235.339 31.8721C233.163 30.5281 230.699 29.8561 227.947 29.8561C225.195 29.8561 222.699 30.5601 220.459 31.9681C218.283 33.3121 216.587 35.2001 215.371 37.6321C214.155 40.0001 213.547 42.6881 213.547 45.6961C213.547 48.7041 214.155 51.4241 215.371 53.8561C216.587 56.2241 218.283 58.1121 220.459 59.5201C222.699 60.8641 225.195 61.5361 227.947 61.5361Z" fill="#4D4D4D"/>
<path d="M178.505 71.04V15.84C178.505 12.832 179.177 10.144 180.521 7.776C181.865 5.344 183.721 3.456 186.089 2.112C188.457 0.703999 191.177 0 194.249 0C196.425 0 198.441 0.383999 200.297 1.152C202.217 1.92 203.785 2.944 205.001 4.224L201.353 12.96C200.521 12.32 199.625 11.808 198.665 11.424C197.769 10.976 196.905 10.752 196.073 10.752C194.793 10.752 193.705 10.976 192.809 11.424C191.977 11.808 191.337 12.416 190.889 13.248C190.505 14.08 190.313 15.104 190.313 16.32V71.04H184.361C183.273 71.04 182.217 71.04 181.193 71.04C180.233 71.04 179.337 71.04 178.505 71.04ZM170.633 31.872V21.504H201.737V31.872H170.633Z" fill="#4D4D4D"/>
<path d="M143.703 72.0001C138.647 72.0001 134.135 70.8801 130.167 68.6401C126.199 66.3361 123.063 63.2001 120.759 59.2321C118.519 55.2641 117.399 50.7521 117.399 45.6961C117.399 40.6401 118.519 36.1281 120.759 32.1601C123.063 28.1921 126.199 25.0881 130.167 22.8481C134.135 20.5441 138.647 19.3921 143.703 19.3921C148.695 19.3921 153.175 20.5441 157.143 22.8481C161.111 25.0881 164.215 28.1921 166.455 32.1601C168.759 36.1281 169.911 40.6401 169.911 45.6961C169.911 50.7521 168.759 55.2641 166.455 59.2321C164.215 63.2001 161.111 66.3361 157.143 68.6401C153.175 70.8801 148.695 72.0001 143.703 72.0001ZM143.703 61.5361C146.455 61.5361 148.919 60.8641 151.095 59.5201C153.271 58.1121 154.967 56.2241 156.183 53.8561C157.463 51.4241 158.071 48.7041 158.007 45.6961C158.071 42.6241 157.463 39.9041 156.183 37.5361C154.967 35.1041 153.271 33.2161 151.095 31.8721C148.919 30.5281 146.455 29.8561 143.703 29.8561C140.951 29.8561 138.455 30.5601 136.215 31.9681C134.039 33.3121 132.343 35.2001 131.127 37.6321C129.911 40.0001 129.303 42.6881 129.303 45.6961C129.303 48.7041 129.911 51.4241 131.127 53.8561C132.343 56.2241 134.039 58.1121 136.215 59.5201C138.455 60.8641 140.951 61.5361 143.703 61.5361Z" fill="#4D4D4D"/>
<path d="M88.6907 72.0001C83.6347 72.0001 79.1227 70.8801 75.1547 68.6401C71.1867 66.3361 68.0507 63.2001 65.7467 59.2321C63.5067 55.2641 62.3867 50.7521 62.3867 45.6961C62.3867 40.6401 63.5067 36.1281 65.7467 32.1601C68.0507 28.1921 71.1867 25.0881 75.1547 22.8481C79.1227 20.5441 83.6347 19.3921 88.6907 19.3921C93.6827 19.3921 98.1627 20.5441 102.131 22.8481C106.099 25.0881 109.203 28.1921 111.443 32.1601C113.747 36.1281 114.899 40.6401 114.899 45.6961C114.899 50.7521 113.747 55.2641 111.443 59.2321C109.203 63.2001 106.099 66.3361 102.131 68.6401C98.1627 70.8801 93.6827 72.0001 88.6907 72.0001ZM88.6907 61.5361C91.4427 61.5361 93.9067 60.8641 96.0827 59.5201C98.2587 58.1121 99.9547 56.2241 101.171 53.8561C102.451 51.4241 103.059 48.7041 102.995 45.6961C103.059 42.6241 102.451 39.9041 101.171 37.5361C99.9547 35.1041 98.2587 33.2161 96.0827 31.8721C93.9067 30.5281 91.4427 29.8561 88.6907 29.8561C85.9387 29.8561 83.4427 30.5601 81.2027 31.9681C79.0267 33.3121 77.3307 35.2001 76.1147 37.6321C74.8987 40.0001 74.2907 42.6881 74.2907 45.6961C74.2907 48.7041 74.8987 51.4241 76.1147 53.8561C77.3307 56.2241 79.0267 58.1121 81.2027 59.5201C83.4427 60.8641 85.9387 61.5361 88.6907 61.5361Z" fill="#4D4D4D"/>
<path d="M0 71.0398V3.83984H26.976C31.84 3.83984 36.224 4.63984 40.128 6.23985C44.096 7.83985 47.488 10.1438 50.304 13.1518C53.12 16.1598 55.296 19.7118 56.832 23.8078C58.368 27.9038 59.136 32.4478 59.136 37.4398C59.136 42.4318 58.368 47.0078 56.832 51.1678C55.296 55.2638 53.12 58.8158 50.304 61.8238C47.552 64.7678 44.192 67.0398 40.224 68.6398C36.256 70.2398 31.84 71.0398 26.976 71.0398H0ZM12.384 61.3438L11.52 59.5198H26.496C29.632 59.5198 32.448 59.0078 34.944 57.9838C37.44 56.9598 39.52 55.5198 41.184 53.6638C42.912 51.7438 44.224 49.4078 45.12 46.6558C46.08 43.9038 46.56 40.8318 46.56 37.4398C46.56 34.0478 46.08 31.0078 45.12 28.3198C44.224 25.5678 42.912 23.2318 41.184 21.3118C39.456 19.3918 37.344 17.9198 34.848 16.8958C32.416 15.8718 29.632 15.3598 26.496 15.3598H11.232L12.384 13.7278V61.3438Z" fill="#4D4D4D"/>
</svg>
